# xmcd
#
# Track frame offsets:
#	150
#	12392
#	24910
#	42408
#	56497
#	77700
#	92381
#	106646
#	120774
#	137880
#	160347
#
# Disc length: 2462 seconds
#
# Revision: 1
# Processed by: cddbd v1.5.2PL0 Copyright (c) Steve Scherf et al.
# Submitted via: audiograbber 1.83.01
#
DISCID=77099c0b
DTITLE=Asleep At The Wheel - New Routes
DYEAR=2018
DGENRE=Country
TTITLE0=Jack I'm Mellow
TTITLE1=Pencil Full of Lead
TTITLE2=Call It a Day Tonight
TTITLE3=Seven Nights to Rock
TTITLE4=Dublin Blues
TTITLE5=I Am Blue
TTITLE6=Pass the Bottle Around
TTITLE7=Big River
TTITLE8=Weary Rambler
TTITLE9=More Days Like This
TTITLE10=Willie Got There First
EXTD=
EXTT0=
EXTT1=
EXTT2=
EXTT3=
EXTT4=
EXTT5=
EXTT6=
EXTT7=
EXTT8=
EXTT9=
EXTT10=
PLAYORDER=
